<?xml version="1.0" encoding="UTF-8" standalone="no"?>
<svg
   width="420mm"
   height="297mm"
   viewBox="0 0 420 297"
   version="1.1"
   id="svg"
   sodipodi:docname="A3_Landscape_custom.svg"
   inkscape:version="1.2.2 (b0a8486541, 2022-12-01)"
   xml:space="preserve"
   xmlns:inkscape="http://www.inkscape.org/namespaces/inkscape"
   xmlns:sodipodi="http://sodipodi.sourceforge.net/DTD/sodipodi-0.dtd"
   xmlns="http://www.w3.org/2000/svg"
   xmlns:svg="http://www.w3.org/2000/svg"
   xmlns:rdf="http://www.w3.org/1999/02/22-rdf-syntax-ns#"
   xmlns:cc="http://creativecommons.org/ns#"
   xmlns:dc="http://purl.org/dc/elements/1.1/"
   xmlns:freecad="https://www.freecad.org/wiki/index.php?title=Svg_Namespace"><defs
     id="defs152" /><sodipodi:namedview
     id="namedview150"
     pagecolor="#ffffff"
     bordercolor="#000000"
     borderopacity="0.25"
     inkscape:showpageshadow="2"
     inkscape:pageopacity="0.0"
     inkscape:pagecheckerboard="0"
     inkscape:deskcolor="#d1d1d1"
     inkscape:document-units="mm"
     showgrid="false"
     inkscape:zoom="1.0440797"
     inkscape:cx="1023.8682"
     inkscape:cy="993.69807"
     inkscape:window-width="1920"
     inkscape:window-height="1014"
     inkscape:window-x="0"
     inkscape:window-y="0"
     inkscape:window-maximized="1"
     inkscape:current-layer="svg"
     showguides="false" /><title
     id="title">Drawing sheet ISO 5457 - A3T - Minimal</title><metadata
     id="metadata"><rdf:RDF><cc:Work
         rdf:about=""><cc:license
           rdf:resource="http://creativecommons.org/publicdomain/zero/1.0/" /><dc:title>Drawing sheet ISO 5457 - A3T - Minimal</dc:title><dc:creator><cc:Agent><dc:title>Benjamin May</dc:title></cc:Agent></dc:creator></cc:Work><cc:License
         rdf:about="http://creativecommons.org/publicdomain/zero/1.0/"><cc:permits
           rdf:resource="http://creativecommons.org/ns#Reproduction" /><cc:permits
           rdf:resource="http://creativecommons.org/ns#Distribution" /><cc:permits
           rdf:resource="http://creativecommons.org/ns#DerivativeWorks" /></cc:License></rdf:RDF></metadata><rect
     id="drawing_space_frame"
     x="20"
     y="10"
     width="390"
     height="277"
     style="fill:none;stroke:#000000;stroke-width:0.7;stroke-linecap:round;stroke-linejoin:round" /><g
     id="g2539"><g
       id="title_block_borders"
       style="fill:none;stroke:#000000;stroke-width:0.35;stroke-linecap:round;stroke-linejoin:round"><rect
         id="title_block_frame"
         x="230"
         y="251"
         width="180"
         height="36"
         style="stroke-width:0.7" /><rect
         id="legal_owner_border"
         x="370"
         y="251"
         width="40"
         height="24" /><rect
         id="identification_number_border"
         x="230"
         y="275"
         width="55.630161"
         height="12.134367" /><rect
         id="revision_index_border"
         x="370"
         y="275"
         width="20"
         height="12" /><rect
         id="date_of_issue_border"
         x="330"
         y="275"
         width="40"
         height="12" /><rect
         id="sheet_number_border"
         x="390"
         y="275"
         width="20"
         height="12" /><rect
         id="language_code_border"
         x="310"
         y="275"
         width="20"
         height="12" /><rect
         id="title_border"
         x="230"
         y="251"
         width="55.627441"
         height="11.979188"
         ry="0" /><rect
         id="approval_person_border"
         x="285.63016"
         y="263"
         width="84.369843"
         height="12" /><rect
         id="creator_border"
         x="285.61053"
         y="251.08958"
         width="84.39225"
         height="11.89922" /><rect
         id="document_type_border"
         x="230"
         y="263"
         width="55.630157"
         height="12" /></g><g
       id="title_block_labels"
       style="font-size:3.5px;font-family:osifont;text-anchor:start;fill:#000000;stroke:none"><text
         id="legal_owner label"
         x="370.5"
         y="254.60001">Logo:</text><text
         id="part_material_label"
         x="230.64487"
         y="278.39627">Material da peça:</text><text
         id="revision_index_label"
         x="370.5"
         y="278.60001">Revisão:</text><text
         id="date_of_issue_label"
         x="330.5"
         y="278.60001">Data:</text><text
         id="sheet_number_label"
         x="390.5"
         y="278.60001">Folhas:</text><text
         id="scale_label"
         x="310.5"
         y="278.60001">Escala:</text><text
         id="approval_person_label"
         x="231.02916"
         y="254.60001">Aprovação:</text><text
         id="title_label"
         x="286.47519"
         y="266.7085">Título</text><text
         id="creator_label"
         x="231.02916"
         y="266.60001"
         style="font-size:3.5px;font-family:osifont;text-anchor:start;fill:#000000;stroke:none">Autor</text></g><g
       id="g863"
       transform="matrix(0.22473728,0,0,0.22385833,372.92372,258.65654)"><g
         id="g825"><path
           d="M 54.6,10.4 H 52.5 V 0.1 h 2.1 v 10.2 z"
           fill="#747678"
           stroke-width="0"
           id="path777" /><path
           d="M 58.8,10.4 H 56.7 V 0.1 h 1.6 l 4.9,6.6 V 0.1 h 2.1 V 10.3 H 63.7 L 58.8,3.8 v 6.5 z"
           fill="#747678"
           stroke-width="0"
           id="path779" /><path
           d="M 67,9.7 V 7.8 c 0.4,0.3 0.9,0.5 1.5,0.6 0.5,0.1 1.1,0.2 1.6,0.2 0.5,0 0.9,0 1.1,-0.3 C 71.5,8.1 71.6,7.8 71.6,7.5 71.6,7.2 71.5,6.9 71.2,6.7 70.9,6.5 70.5,6.3 69.9,6 69.3,5.7 68.8,5.5 68.5,5.3 68.1,5.1 67.8,4.8 67.5,4.4 67.2,4 67.1,3.5 67.1,3 c 0,-0.5 0.1,-1.1 0.4,-1.6 0.3,-0.5 0.7,-0.8 1.2,-1.1 0.5,-0.3 1.2,-0.4 1.9,-0.4 0.7,0 1.8,0.2 2.6,0.6 V 2.4 C 72.4,2 71.6,1.8 70.7,1.8 c -0.9,0 -0.8,0 -1.1,0.3 -0.3,0.3 -0.4,0.4 -0.4,0.8 0,0.4 0.1,0.5 0.4,0.7 0.3,0.2 0.7,0.4 1.2,0.6 0.6,0.3 1.1,0.5 1.5,0.7 0.4,0.2 0.7,0.5 1,0.9 0.3,0.4 0.4,0.9 0.4,1.5 0,0.6 -0.2,1.2 -0.5,1.6 -0.3,0.5 -0.7,0.8 -1.3,1.1 -0.5,0.3 -1.2,0.4 -1.9,0.4 -1,0 -2.1,-0.3 -3.1,-0.8 z"
           fill="#747678"
           stroke-width="0"
           id="path781" /><path
           d="M 79.4,10.4 H 77.3 V 2.1 h -2.9 v -2 h 8 v 2 h -3 v 8.2 z"
           fill="#747678"
           stroke-width="0"
           id="path783" /><path
           d="M 86.2,10.4 H 84.1 V 0.1 h 2.1 v 10.2 z"
           fill="#747678"
           stroke-width="0"
           id="path785" /><path
           d="M 93,10.4 H 90.9 V 2.1 H 88 v -2 h 8 v 2 h -3 v 8.2 z"
           fill="#747678"
           stroke-width="0"
           id="path787" /><path
           d="M 99.7,9.9 C 99.1,9.5 98.6,9 98.2,8.2 97.8,7.5 97.7,6.6 97.7,5.6 V 0.1 h 2.1 v 5.6 c 0,0.9 0.2,1.6 0.5,2.1 0.4,0.5 0.9,0.7 1.5,0.7 0.6,0 1.2,-0.2 1.6,-0.7 0.4,-0.5 0.6,-1.2 0.6,-2.1 V 0.1 h 2.1 v 5.5 c 0,1 -0.2,1.9 -0.5,2.6 -0.4,0.7 -0.9,1.3 -1.5,1.6 -0.6,0.4 -1.4,0.6 -2.3,0.6 -0.9,0 -1.6,-0.2 -2.2,-0.6 z"
           fill="#747678"
           stroke-width="0"
           id="path789" /><path
           d="m 112.9,10.4 h -2.1 V 2.1 h -2.9 v -2 h 8 v 2 h -3 v 8.2 z"
           fill="#747678"
           stroke-width="0"
           id="path791" /><path
           d="m 119.1,9.9 c -0.7,-0.4 -1.3,-1 -1.7,-1.8 -0.4,-0.8 -0.6,-1.7 -0.6,-2.8 0,-1.1 0.2,-2 0.6,-2.8 0.4,-0.8 1,-1.4 1.7,-1.8 0.7,-0.4 1.5,-0.6 2.4,-0.6 0.9,0 1.7,0.2 2.5,0.6 0.7,0.4 1.3,1 1.7,1.8 0.4,0.8 0.6,1.7 0.6,2.8 0,1.1 -0.2,2 -0.6,2.8 -0.4,0.8 -1,1.4 -1.8,1.8 -0.7,0.4 -1.6,0.6 -2.4,0.6 -0.8,0 -1.7,-0.2 -2.4,-0.6 z m 3.8,-1.7 c 0.4,-0.2 0.7,-0.6 1,-1.1 0.2,-0.5 0.4,-1.1 0.4,-1.8 0,-0.7 -0.1,-1.3 -0.4,-1.8 -0.2,-0.5 -0.6,-0.9 -1,-1.1 -0.4,-0.3 -0.8,-0.4 -1.4,-0.4 -0.6,0 -0.9,0.1 -1.3,0.4 -0.4,0.2 -0.7,0.6 -1,1.1 -0.2,0.5 -0.4,1.1 -0.4,1.8 0,0.7 0.1,1.3 0.4,1.8 0.2,0.5 0.6,0.9 1,1.1 0.4,0.2 0.8,0.4 1.3,0.4 0.5,0 0.9,-0.1 1.3,-0.4 z"
           fill="#747678"
           stroke-width="0"
           id="path793" /><path
           d="M 57.1,24.9 H 55 v -8.2 h -2.9 v -2 h 8 v 2 h -3 z"
           fill="#747678"
           stroke-width="0"
           id="path795" /><path
           d="M 68.7,24.9 H 61.8 V 14.7 h 6.9 v 1.8 h -4.8 v 2.4 h 4.4 v 1.8 h -4.4 v 2.4 h 4.8 z"
           fill="#747678"
           stroke-width="0"
           id="path797" /><path
           d="m 72.5,24.4 c -0.8,-0.5 -1.4,-1.1 -1.8,-1.9 -0.4,-0.8 -0.6,-1.7 -0.6,-2.6 0,-0.9 0.2,-1.8 0.6,-2.7 0.4,-0.8 1,-1.4 1.8,-1.9 0.8,-0.5 1.7,-0.7 2.7,-0.7 1,0 0.9,0 1.4,0.2 0.5,0.1 0.9,0.2 1.2,0.4 v 1.9 C 77.4,17 77,16.8 76.6,16.7 c -0.4,0 -0.8,-0.1 -1.2,-0.1 -0.7,0 -1.3,0.1 -1.8,0.4 -0.5,0.3 -0.8,0.7 -1.1,1.2 -0.2,0.5 -0.4,1.1 -0.4,1.7 0,1 0.3,1.8 0.9,2.4 0.6,0.6 1.4,0.9 2.6,0.9 1.2,0 1.6,-0.2 2.3,-0.5 v 1.9 c -0.8,0.4 -1.6,0.6 -2.7,0.6 -1.1,0 -2.1,-0.2 -2.9,-0.7 z"
           fill="#747678"
           stroke-width="0"
           id="path799" /><path
           d="M 82,24.9 H 79.9 V 14.7 h 1.6 l 4.9,6.6 v -6.6 h 2.1 V 24.9 H 86.9 L 82,18.4 Z"
           fill="#747678"
           stroke-width="0"
           id="path801" /><path
           d="m 92.5,24.5 c -0.7,-0.4 -1.3,-1 -1.7,-1.8 -0.4,-0.8 -0.6,-1.7 -0.6,-2.8 0,-1.1 0.2,-2 0.6,-2.8 0.4,-0.8 1,-1.4 1.7,-1.8 0.7,-0.4 1.5,-0.6 2.4,-0.6 0.9,0 1.7,0.2 2.5,0.6 0.7,0.4 1.3,1 1.7,1.8 0.4,0.8 0.6,1.7 0.6,2.8 0,1.1 -0.2,2 -0.6,2.8 -0.4,0.8 -1,1.4 -1.8,1.8 -0.7,0.4 -1.6,0.6 -2.4,0.6 -0.8,0 -1.7,-0.2 -2.4,-0.6 z m 3.8,-1.7 c 0.4,-0.2 0.7,-0.6 1,-1.1 0.2,-0.5 0.4,-1.1 0.4,-1.8 0,-0.7 -0.1,-1.3 -0.4,-1.8 -0.2,-0.5 -0.6,-0.9 -1,-1.1 -0.4,-0.3 -0.8,-0.4 -1.4,-0.4 -0.6,0 -0.9,0.1 -1.3,0.4 -0.4,0.2 -0.7,0.6 -1,1.1 -0.2,0.5 -0.4,1.1 -0.4,1.8 0,0.7 0.1,1.3 0.4,1.8 0.2,0.5 0.6,0.9 1,1.1 0.4,0.2 0.8,0.4 1.3,0.4 0.5,0 0.9,-0.1 1.3,-0.4 z"
           fill="#747678"
           stroke-width="0"
           id="path803" /><path
           d="m 107.9,24.9 h -6.5 V 14.7 h 2.1 v 8.2 h 4.4 z"
           fill="#747678"
           stroke-width="0"
           id="path805" /><path
           d="m 111.2,24.5 c -0.7,-0.4 -1.3,-1 -1.7,-1.8 -0.4,-0.8 -0.6,-1.7 -0.6,-2.8 0,-1.1 0.2,-2 0.6,-2.8 0.4,-0.8 1,-1.4 1.7,-1.8 0.7,-0.4 1.5,-0.6 2.4,-0.6 0.9,0 1.7,0.2 2.5,0.6 0.7,0.4 1.3,1 1.7,1.8 0.4,0.8 0.6,1.7 0.6,2.8 0,1.1 -0.2,2 -0.6,2.8 -0.4,0.8 -1,1.4 -1.8,1.8 -0.7,0.4 -1.6,0.6 -2.4,0.6 -0.8,0 -1.7,-0.2 -2.4,-0.6 z m 3.8,-1.7 c 0.4,-0.2 0.7,-0.6 1,-1.1 0.2,-0.5 0.4,-1.1 0.4,-1.8 0,-0.7 -0.1,-1.3 -0.4,-1.8 -0.2,-0.5 -0.6,-0.9 -1,-1.1 -0.4,-0.3 -0.8,-0.4 -1.4,-0.4 -0.6,0 -0.9,0.1 -1.3,0.4 -0.4,0.2 -0.7,0.6 -1,1.1 -0.2,0.5 -0.4,1.1 -0.4,1.8 0,0.7 0.1,1.3 0.4,1.8 0.2,0.5 0.6,0.9 1,1.1 0.4,0.2 0.8,0.4 1.3,0.4 0.5,0 0.9,-0.1 1.3,-0.4 z m -0.8,-9 h -1.7 l 1.6,-2.2 h 2.3 l -2.1,2.2 z"
           fill="#747678"
           stroke-width="0"
           id="path807" /><path
           d="m 122.2,24.4 c -0.8,-0.4 -1.4,-1 -1.8,-1.8 -0.4,-0.8 -0.7,-1.7 -0.7,-2.7 0,-1 0.2,-1.9 0.6,-2.7 0.4,-0.8 1,-1.4 1.8,-1.9 0.8,-0.5 1.7,-0.7 2.8,-0.7 1.1,0 1,0 1.5,0.1 0.5,0 1,0.2 1.4,0.4 V 17 c -0.4,-0.1 -0.9,-0.3 -1.4,-0.4 -0.5,0 -1,-0.1 -1.4,-0.1 -0.7,0 -1.3,0.1 -1.8,0.4 -0.5,0.3 -0.8,0.7 -1.1,1.2 -0.2,0.5 -0.4,1.1 -0.4,1.7 0,0.6 0.1,1.2 0.4,1.7 0.3,0.5 0.6,0.9 1.1,1.2 0.5,0.3 1.1,0.5 1.8,0.5 0.7,0 0.9,0 1.2,-0.1 v -2 h -1.7 v -1.8 h 3.7 v 4.8 c -1.1,0.6 -2.2,0.9 -3.6,0.9 -1.4,0 -1.9,-0.2 -2.7,-0.6 z"
           fill="#747678"
           stroke-width="0"
           id="path809" /><path
           d="m 132.7,24.9 h -2.1 V 14.7 h 2.1 z"
           fill="#747678"
           stroke-width="0"
           id="path811" /><path
           d="m 136.7,24.4 c -0.8,-0.5 -1.4,-1.1 -1.8,-1.9 -0.4,-0.8 -0.6,-1.7 -0.6,-2.6 0,-0.9 0.2,-1.8 0.6,-2.7 0.4,-0.8 1,-1.4 1.8,-1.9 0.8,-0.5 1.7,-0.7 2.7,-0.7 1,0 0.9,0 1.4,0.2 0.5,0.1 0.9,0.2 1.2,0.4 v 1.9 c -0.4,-0.1 -0.8,-0.3 -1.2,-0.4 -0.4,0 -0.8,-0.1 -1.2,-0.1 -0.7,0 -1.3,0.1 -1.8,0.4 -0.5,0.3 -0.8,0.7 -1.1,1.2 -0.2,0.5 -0.4,1.1 -0.4,1.7 0,1 0.3,1.8 0.9,2.4 0.6,0.6 1.4,0.9 2.6,0.9 1.2,0 1.6,-0.2 2.3,-0.5 v 1.9 c -0.8,0.4 -1.6,0.6 -2.7,0.6 -1.1,0 -2.1,-0.2 -2.9,-0.7 z"
           fill="#747678"
           stroke-width="0"
           id="path813" /><path
           d="m 145.7,24.5 c -0.7,-0.4 -1.3,-1 -1.7,-1.8 -0.4,-0.8 -0.6,-1.7 -0.6,-2.8 0,-1.1 0.2,-2 0.6,-2.8 0.4,-0.8 1,-1.4 1.7,-1.8 0.7,-0.4 1.5,-0.6 2.4,-0.6 0.9,0 1.7,0.2 2.5,0.6 0.7,0.4 1.3,1 1.7,1.8 0.4,0.8 0.6,1.7 0.6,2.8 0,1.1 -0.2,2 -0.6,2.8 -0.4,0.8 -1,1.4 -1.8,1.8 -0.7,0.4 -1.6,0.6 -2.4,0.6 -0.8,0 -1.7,-0.2 -2.4,-0.6 z m 3.8,-1.7 c 0.4,-0.2 0.7,-0.6 1,-1.1 0.2,-0.5 0.4,-1.1 0.4,-1.8 0,-0.7 -0.1,-1.3 -0.4,-1.8 -0.2,-0.5 -0.6,-0.9 -1,-1.1 -0.4,-0.3 -0.8,-0.4 -1.4,-0.4 -0.6,0 -0.9,0.1 -1.3,0.4 -0.4,0.2 -0.7,0.6 -1,1.1 -0.2,0.5 -0.4,1.1 -0.4,1.8 0,0.7 0.1,1.3 0.4,1.8 0.2,0.5 0.6,0.9 1,1.1 0.4,0.2 0.8,0.4 1.3,0.4 0.5,0 0.9,-0.1 1.3,-0.4 z"
           fill="#747678"
           stroke-width="0"
           id="path815" /><path
           d="M 55.6,39.5 51.7,29.3 H 54 l 2.7,7.4 c 1.2,-3 2,-5.5 2.4,-7.4 h 2.2 c -0.4,1.4 -0.9,3 -1.5,4.6 -0.6,1.6 -1.4,3.5 -2.3,5.6 z"
           fill="#747678"
           stroke-width="0"
           id="path817" /><path
           d="m 62.7,39.5 h -2.1 l 3.9,-10.2 h 1.9 l 3.9,10.2 H 68 l -0.7,-2 H 63.4 Z M 65.4,32 64,35.8 h 2.7 z"
           fill="#747678"
           stroke-width="0"
           id="path819" /><path
           d="M 78.2,39.5 H 71.7 V 29.3 h 2.1 v 8.2 h 4.4 z"
           fill="#747678"
           stroke-width="0"
           id="path821" /><path
           d="M 86.7,39.5 H 79.8 V 29.3 h 6.9 v 1.8 h -4.8 v 2.4 h 4.4 v 1.8 h -4.4 v 2.4 h 4.8 z"
           fill="#747678"
           stroke-width="0"
           id="path823" /></g><path
         d="M 16.1,19.5 V 8.4 L 0,0.1 v 13.6 c 0,1.2 0.7,2.3 1.8,2.9 l 11.4,5.9 c 1.3,0.7 2.1,2 2.1,3.5 v 10.8 c 0,1.4 1.2,2.6 2.6,2.6 h 12.7 c 1.4,0 2.6,-1.2 2.6,-2.6 V 25.5 c 0,-1.4 -1.2,-2.6 -2.6,-2.6 H 19.4 c -1.8,0 -3.3,-1.5 -3.3,-3.3"
         fill="#007e7a"
         stroke-width="0"
         id="path827" /><path
         d="M 41.1,8.4 H 16.2 L 0,0.1 h 27.8 c 0.8,0 1.5,0.2 2.2,0.5 l 11.5,5.9 c 0.9,0.5 0.6,1.9 -0.4,1.9"
         fill="#edb111"
         stroke-width="0"
         id="path829" /></g></g><text
     id="part_material_data_field"
     x="230.903"
     y="283.68076"
     freecad:editable="part_material"
     style="font-size:2.82222px;font-family:osifont;text-anchor:start;fill:#000000;stroke:none"><tspan
       id="tspan105"
       style="font-size:2.82222px">Mater<tspan
   id="tspan1495"
   style="font-size:2.82222px">i</tspan>al</tspan></text><text
     id="revision_index_data_field-5"
     x="380.24844"
     y="284.4747"
     freecad:editable="revision_index"
     style="font-size:2.82222px;font-family:osifont;text-align:center;text-anchor:middle;fill:#000000;stroke:none"><tspan
       id="tspan108-3"
       style="font-size:2.82222px">AAA</tspan></text><text
     id="date_of_issue_data_field"
     x="341.40814"
     y="284.16052"
     freecad:editable="date_of_issue"
     freecad:autofill="date"
     style="font-size:2.82222px;font-family:osifont;text-anchor:start;fill:#000000;stroke:none"><tspan
       id="tspan111"
       style="font-size:2.82222px">YYYY-MM-DD</tspan></text><text
     id="sheet_number_data_field"
     x="399.99985"
     y="284.20004"
     freecad:editable="sheet_number"
     freecad:autofill="sheet"
     style="font-size:2.82222px;font-family:osifont;text-align:center;text-anchor:middle;fill:#000000;stroke:none"><tspan
       id="tspan114"
       style="font-size:2.82222px">X / Y</tspan></text><text
     id="scale_data_field"
     x="319.24823"
     y="284.14078"
     freecad:editable="scale"
     freecad:autofill="scale"
     style="font-size:2.82222px;font-family:osifont;text-align:center;text-anchor:middle;fill:#000000;stroke:none"><tspan
       id="tspan117"
       style="font-size:2.82222px">1:1</tspan></text><text
     id="project_code_label"
     x="286.29663"
     y="278.74774"
     style="font-size:3.5px;font-family:osifont;text-anchor:start;fill:#000000;stroke:none">Código:</text><text
     id="project_code_data_field"
     x="297.815"
     y="284.17041"
     freecad:editable="project_code"
     style="font-size:2.82222px;font-family:osifont;text-align:center;text-anchor:middle;fill:#000000;stroke:none"><tspan
       id="tspan117-7"
       style="font-size:2.82222px">0001</tspan></text><text
     id="approval_person_data_field"
     x="231.00005"
     y="260.20004"
     freecad:editable="approval_person"
     style="font-size:2.82222px;font-family:osifont;text-anchor:start;fill:#000000;stroke:none"><tspan
       id="tspan120"
       style="font-size:2.82222px">Nome aprovação</tspan></text><text
     id="title_data_field"
     x="286.4678"
     y="272.22543"
     freecad:editable="title"
     freecad:autofill="title"
     style="font-size:2.82222px;font-family:osifont;text-anchor:start;fill:#000000;stroke:none"><tspan
       id="tspan123"
       style="font-size:2.82222px">Título da folha</tspan></text><text
     id="owner_data_field"
     x="286.65836"
     y="260.20004"
     freecad:editable="owner"
     freecad:autofill="owner"
     style="font-size:4.23333px;font-family:osifont;text-anchor:start;fill:#000000;stroke:none"><tspan
       id="tspan126"
       style="font-size:4.23333px">Instituição/Empresa</tspan></text><text
     id="creator_data_field"
     x="231.00005"
     y="272.20004"
     freecad:editable="document_type"
     freecad:autofill="creator"
     style="font-size:2.82222px;font-family:osifont;text-anchor:start;fill:#000000;stroke:none"><tspan
       id="tspan129"
       style="font-size:2.82222px">Nome autor</tspan></text><g
     id="centring_marks"
     style="fill:none;stroke:#000000;stroke-width:0.7;stroke-linecap:round"><path
       id="top_centering"
       d="m 210,5 v 10" /><path
       id="right_centering"
       d="m 415,148.5 h -10" /><path
       id="bottom_centering"
       d="m 210,292 v -10" /><path
       id="left_centering"
       d="m 15,148.5 h 10" /></g><g
     id="grid_reference_system"><g
       id="grid_reference_borders"
       style="fill:none;stroke:#000000;stroke-width:0.35;stroke-linecap:round;stroke-linejoin:round"><rect
         id="grid_reference_border"
         x="15"
         y="5"
         width="400"
         height="287" /><path
         id="upper_border_1"
         d="m 60,5 v 5" /><path
         id="upper_border_2"
         d="m 110,5 v 5" /><path
         id="upper_border_3"
         d="m 160,5 v 5" /><path
         id="upper_border_5"
         d="m 260,5 v 5" /><path
         id="upper_border_6"
         d="m 310,5 v 5" /><path
         id="upper_border_7"
         d="m 360,5 v 5" /><path
         id="right_border_1"
         d="m 415,48.5 h -5" /><path
         id="right_border_2"
         d="m 415,98.5 h -5" /><path
         id="right_border_4"
         d="m 415,198.5 h -5" /><path
         id="right_border_5"
         d="m 415,248.5 h -5" /><path
         id="lower_border_1"
         d="m 60,292 v -5" /><path
         id="lower_border_2"
         d="m 110,292 v -5" /><path
         id="lower_border_3"
         d="m 160,292 v -5" /><path
         id="lower_border_5"
         d="m 260,292 v -5" /><path
         id="lower_border_6"
         d="m 310,292 v -5" /><path
         id="lower_border_7"
         d="m 360,292 v -5" /><path
         id="left_border_1"
         d="m 15,48.5 h 5" /><path
         id="left_border_2"
         d="m 15,98.5 h 5" /><path
         id="left_border_4"
         d="m 15,198.5 h 5" /><path
         id="left_border_5"
         d="m 15,248.5 h 5" /></g><g
       id="grid_reference_markers"
       style="font-size:3.5px;font-family:osifont;text-align:center;text-anchor:middle;fill:#000000;stroke:none"><text
         id="upper_marker_1"
         x="35"
         y="8.8">1</text><text
         id="upper_marker_2"
         x="85"
         y="8.8">2</text><text
         id="upper_marker_3"
         x="135"
         y="8.8">3</text><text
         id="upper_marker_4"
         x="185"
         y="8.8">4</text><text
         id="upper_marker_5"
         x="235"
         y="8.8">5</text><text
         id="upper_marker_6"
         x="285"
         y="8.8">6</text><text
         id="upper_marker_7"
         x="335"
         y="8.8">7</text><text
         id="upper_marker_8"
         x="385"
         y="8.8">8</text><text
         id="right_marker_1"
         x="412.5"
         y="24.8">A</text><text
         id="right_marker_2"
         x="412.5"
         y="74.8">B</text><text
         id="right_marker_3"
         x="412.5"
         y="124.8">C</text><text
         id="right_marker_4"
         x="412.5"
         y="174.8">D</text><text
         id="right_marker_5"
         x="412.5"
         y="224.8">E</text><text
         id="right_marker_6"
         x="412.5"
         y="274.8">F</text><text
         id="lower_marker_1"
         x="35"
         y="290.8">1</text><text
         id="lower_marker_2"
         x="85"
         y="290.8">2</text><text
         id="lower_marker_3"
         x="135"
         y="290.8">3</text><text
         id="lower_marker_4"
         x="185"
         y="290.8">4</text><text
         id="lower_marker_5"
         x="235"
         y="290.8">5</text><text
         id="lower_marker_6"
         x="285"
         y="290.8">6</text><text
         id="lower_marker_7"
         x="335"
         y="290.8">7</text><text
         id="lower_marker_8"
         x="385"
         y="290.8">A3</text><text
         id="left_marker_1"
         x="17.5"
         y="24.8">A</text><text
         id="left_marker_2"
         x="17.5"
         y="74.8">B</text><text
         id="left_marker_3"
         x="17.5"
         y="124.8">C</text><text
         id="left_marker_4"
         x="17.5"
         y="174.8">D</text><text
         id="left_marker_5"
         x="17.5"
         y="224.8">E</text><text
         id="left_marker_6"
         x="17.5"
         y="274.8">F</text></g></g><g
     id="trimming_marks"
     style="fill:#000000;stroke:none">&gt;
    <path
   id="top_left_trimming"
   d="m 0,0 h 10 v 5 h -5 v 5 h -5 z" /><path
   id="top_right_trimming"
   d="m 420,0 h -10 v 5 h 5 v 5 h 5 z" /><path
   id="bottom_right_trimming"
   d="m 420,297 h -10 v -5 h 5 v -5 h 5 z" /><path
   id="bottom_left_trimming"
   d="m 0,297 h 10 v -5 h -5 v -5 h -5 z" /></g><!-- Title block --><g
     id="g2563" /></svg>
